<?xml version="1.0" encoding="UTF-8" standalone="no"?>
<svg width="94px" height="76px" viewBox="0 0 94 76" version="1.1" xmlns="http://www.w3.org/2000/svg" xmlns:xlink="http://www.w3.org/1999/xlink" xmlns:sketch="http://www.bohemiancoding.com/sketch/ns">
    <!-- Generator: Sketch 3.3.2 (12043) - http://www.bohemiancoding.com/sketch -->
    <title>给我点萌</title>
    <desc>Created with Sketch.</desc>
    <defs></defs>
    <g id="Page-1" stroke="none" stroke-width="1" fill="none" fill-rule="evenodd" sketch:type="MSPage">
        <g id="点赞页面" sketch:type="MSArtboardGroup" transform="translate(-78.000000, -1241.000000)" fill="#765039">
            <g id="菜单栏-copy" sketch:type="MSLayerGroup" transform="translate(0.000000, 1224.000000)">
                <g id="给我点萌" transform="translate(77.000000, 17.000000)" sketch:type="MSShapeGroup">
                    <g id="like" transform="translate(23.950525, 0.000000)">
                        <g id="Group">
                            <path d="M16.7371902,38.7758002 C16.7371902,41.5004053 14.5506482,43.7096985 11.8541009,43.7096985 L5.41774958,43.7096985 C2.72120227,43.7096985 0.534660243,41.5004053 0.534660243,38.7758002 L0.534660243,23.0203511 C0.534660243,20.2957459 2.72120227,18.0864527 5.41774958,18.0864527 L11.8541009,18.0864527 C14.5506482,18.0864527 16.7371902,20.2957459 16.7371902,23.0203511 L16.7371902,38.7758002 L16.7371902,38.7758002 Z M13.9194814,23.0203511 C13.9194814,21.8680168 12.9945685,20.93348 11.8541009,20.93348 L5.41774958,20.93348 C4.27728195,20.93348 3.35236904,21.8680168 3.35236904,23.0203511 L3.35236904,38.776512 C3.35236904,39.9288463 4.27728195,40.863383 5.41774958,40.863383 L11.8541009,40.863383 C12.9945685,40.863383 13.9194814,39.9288463 13.9194814,38.776512 L13.9194814,23.0203511 L13.9194814,23.0203511 Z" id="Shape"></path>
                            <path d="M9.69291825,37.4818263 C9.69291825,38.1700951 9.14064732,38.7274007 8.46017065,38.7274007 L8.10795705,38.7274007 C7.42748038,38.7274007 6.87520945,38.1700951 6.87520945,37.4818263 L6.87520945,37.1259479 C6.87520945,36.437679 7.42748038,35.8803734 8.10795705,35.8803734 L8.46017065,35.8803734 C9.14064732,35.8803734 9.69291825,36.437679 9.69291825,37.1259479 L9.69291825,37.4818263 L9.69291825,37.4818263 Z" id="Shape"></path>
                            <path d="M27.3564302,43.73461 C23.8504961,43.73461 20.0846283,43.2847797 18.8075018,37.9159979 C18.7821424,37.8078109 18.8504718,37.6953533 18.8504718,37.5836075 L18.8504718,19.5918184 C18.8504718,19.3932383 18.8103195,19.1960816 18.8906242,19.0145836 L19.1287206,18.3775613 C19.5217909,17.1483572 20.6664851,15.2750133 22.5149021,12.3738924 C23.7786445,10.3895144 25.0761994,8.33680772 25.4798362,7.30476032 C26.1666527,5.54885623 26.163835,3.18155302 26.1067764,2.4185497 C26.066624,1.88188505 26.3272621,1.36799662 26.7830265,1.09112322 C26.9006658,1.01923578 27.9699863,0.393601526 29.3527769,0.393601526 C30.2340153,0.393601526 31.0469243,0.640581145 31.7703711,1.1259993 C33.7293831,2.44203767 35.9236738,4.49830315 35.49186,8.75318546 C35.3573144,10.0948471 34.8008169,11.3532332 34.2633389,12.5710491 C33.9104209,13.3710638 33.5772268,14.1269495 33.3905536,14.8408416 C33.3525146,14.98604 33.348288,15.3803533 33.3461747,15.7106084 C34.8825304,15.8444187 36.4287481,15.9625704 37.8199918,15.9625704 C38.6970037,15.9625704 39.4105885,15.9554528 39.9868099,15.949047 C40.7327983,15.9412177 41.2505523,15.9369471 41.6140367,15.9504705 C41.8796058,15.9561646 42.128973,15.9647056 42.3586163,15.9953112 C43.8858144,16.2010089 45.2432457,16.9960413 46.1794294,18.2330746 C47.1156131,19.470108 47.5185455,21.0018087 47.314966,22.5456093 C47.1177264,24.0474162 46.3435609,25.4125658 45.1728029,26.3471025 C45.6877392,27.3058389 45.8920231,28.4083502 45.7476155,29.4973382 C45.5813707,30.7614183 44.978381,31.8888411 44.0358574,32.7151908 C44.0358574,32.7344082 44.0372663,32.7529139 44.0386751,32.7685726 C44.354963,33.513782 44.465558,34.3351493 44.3584851,35.1515344 C44.2042155,36.3209509 43.5927727,37.3864509 42.6819484,38.1124428 C42.9242713,38.7103186 43.004576,39.3772347 42.9122961,40.0704859 C42.7249184,41.4840349 41.7316761,42.6769394 40.3636785,43.1474106 C39.5359765,43.5694824 38.4906065,43.6577403 37.0972495,43.6577403 L37.0972495,43.6577403 C36.6273966,43.6577403 36.1033028,43.6477757 35.5214459,43.6370993 C34.8120877,43.6235759 34.0132673,43.6086291 33.1165314,43.6086291 C31.9986055,43.6086291 30.9476001,43.6435051 29.9311117,43.6769577 C29.0188784,43.7068515 28.1601817,43.73461 27.3564302,43.73461 L27.3564302,43.73461 Z M21.6681806,37.4099388 C22.3726078,40.4000293 23.9547513,40.8882945 27.4374394,40.8882945 C28.2130137,40.8882945 28.9998589,40.8612477 29.878984,40.8320657 C30.919423,40.7979013 31.9732461,40.7623135 33.1369598,40.7623135 C34.0534196,40.7623135 34.8585799,40.7772604 35.5834355,40.7914955 C36.1469772,40.8021719 36.6485294,40.8114247 37.1021805,40.8114247 L37.1021805,40.8114247 C37.508635,40.8114247 38.7442003,40.8114247 39.1140246,40.5964742 C39.2091223,40.5416689 39.3084465,40.49754 39.4134062,40.4662227 C39.7170143,40.3758295 40.0671146,40.0953974 40.1199466,39.692543 C40.1417839,39.5267036 40.1431927,39.2889769 40.0262578,39.0946673 C39.7233541,38.5943022 39.642345,37.918845 39.8064765,37.2846696 C39.952293,36.7230935 40.2756251,36.2761102 40.7187098,36.0255718 C41.1864494,35.7600865 41.4949885,35.3038504 41.5647268,34.7750151 C41.606288,34.4597068 41.5619091,34.1443985 41.4365211,33.8646781 C41.1160067,33.150786 41.035702,31.4311815 42.0261266,30.6945132 C42.5417674,30.3137233 42.869326,29.7564177 42.9531528,29.1222423 C43.0264133,28.5684955 42.8996164,28.0076312 42.5967127,27.5407187 C41.9768167,26.585541 42.3170551,24.8872892 43.2574654,24.2367435 C43.9506217,23.7591547 44.4106127,23.0061159 44.5205034,22.1698017 C44.6247586,21.3797516 44.4183614,20.5961073 43.9393509,19.9626437 C43.4603404,19.3298919 42.7657752,18.9234788 41.983861,18.8181388 C41.8570641,18.8010566 41.7323805,18.7974978 41.6084013,18.7974978 C41.5914951,18.7974978 41.5259833,18.7974978 41.5083727,18.7967861 C41.1787007,18.7832627 40.6891238,18.7889567 40.0142826,18.7967861 C39.4303124,18.8024801 38.7082745,18.8103094 37.8192874,18.8103094 C36.0286335,18.8103094 34.0759613,18.6352173 32.187392,18.4665309 L31.7598047,18.428096 C31.3822317,18.3946434 31.0335402,18.2081632 30.7933305,17.9120723 C30.5531209,17.6152697 30.4411169,17.2337681 30.4833826,16.8529782 C30.5235349,16.493541 30.5256482,16.1056335 30.5277615,15.7305376 C30.5319881,15.1554381 30.5355102,14.6137912 30.6658292,14.1141379 C30.9109699,13.1774659 31.3061535,12.2799405 31.6893619,11.4115972 C32.1563972,10.3525031 32.598073,9.35177295 32.6875353,8.46278868 C32.9770549,5.61006731 31.6217369,4.44492139 30.208656,3.49543778 C29.8374228,3.24703465 29.3541858,3.19863518 28.9385737,3.28191073 C28.9294162,4.50328545 28.7934617,6.55243335 28.0890345,8.35175461 C27.5825514,9.6428815 26.2617504,11.7176526 24.862758,13.9141342 C23.6011288,15.89353 22.031665,18.3583438 21.7590517,19.2850512 C21.7421455,19.3427035 21.8020218,19.3996441 21.7773668,19.4551611 L21.6681806,19.8936033 L21.6681806,37.4099388 L21.6681806,37.4099388 Z" id="Shape"></path>
                            <path d="M33.5962464,38.7274007 L33.5828622,38.7274007 C33.5025575,38.7274007 33.4300015,38.8590757 33.3637854,38.8476876 C32.9798726,38.8412818 32.6713335,38.5957257 32.6713335,38.2063947 C32.6713335,37.8127932 32.9862124,37.529514 33.3757606,37.529514 C33.6054039,37.529514 34.3034913,37.5465962 34.3175798,38.2462531 C34.3196931,38.3473226 34.2971514,38.3124465 34.2541814,38.3999926 C34.1534483,38.6690367 33.8963323,38.7274007 33.5962464,38.7274007 L33.5962464,38.7274007 Z" id="Shape"></path>
                            <path d="M28.4433614,39.2142424 C26.7323077,39.2142424 25.2663947,38.8690403 23.9124857,37.2932107 C23.657483,36.9964081 23.6891822,36.5472896 23.9829284,36.2896336 C24.2766745,36.0305541 24.7211681,36.0632949 24.9761707,36.3608093 C26.3674145,37.9786325 27.7783821,37.8796983 30.3396794,37.6982004 C30.6637159,37.6754241 31.0011366,37.6519362 31.3540546,37.6305835 C31.7316276,37.605672 32.075388,37.9067451 32.0993386,38.2989231 C32.1218802,38.6911011 31.8260208,39.0277621 31.4378814,39.0512501 C31.0905988,39.071891 30.7574048,39.0960908 30.4375948,39.1181552 C29.7359853,39.1672665 29.0724149,39.2142424 28.4433614,39.2142424 L28.4433614,39.2142424 Z" id="Shape"></path>
                        </g>
                    </g>
                    <path d="M4.02368816,67.3523575 C5.91577961,65.1728597 7.78392054,62.490401 9.3886057,59.7600412 L7.97552474,58.9457233 C7.52046477,59.8558433 6.99355322,60.7659632 6.46664168,61.6042316 L3.20937031,61.98744 C4.59850075,59.9276948 5.96368066,57.2452361 6.99355322,54.7064804 L5.48467016,54.0119152 C4.52664918,56.8620277 2.82616192,59.9755959 2.29925037,60.7659632 C1.82023988,61.580281 1.41308096,62.1550936 0.981971514,62.2508957 C1.17357571,62.6820052 1.43703148,63.496323 1.53283358,63.8076798 C1.86814093,63.6639767 2.419003,63.5202735 5.48467016,63.1131146 C4.38294603,64.6698987 3.40097451,65.915326 2.96986507,66.418287 C2.2273988,67.3044564 1.65258621,67.9271701 1.17357571,68.0229722 C1.36517991,68.4301311 1.60468516,69.1965479 1.70048726,69.5079047 C2.15554723,69.2204984 2.94591454,69.0288942 9.0053973,67.8074175 C8.95749625,67.4721101 8.95749625,66.825446 9.0053973,66.4422376 L4.02368816,67.3523575 Z M1.43703148,74.2740591 C3.61652924,73.7471476 6.53849325,73.0046813 9.31675412,72.3101161 L9.17305097,70.9209857 C6.17923538,71.5916004 3.16146927,72.3101161 1.12567466,72.6933245 L1.43703148,74.2740591 Z M18.8251124,67.5200112 L18.8251124,73.1004834 L12.3345202,73.1004834 L12.3345202,67.5200112 L18.8251124,67.5200112 Z M10.8016867,75.8547938 L12.3345202,75.8547938 L12.3345202,74.5375149 L18.8251124,74.5375149 L18.8251124,75.7829422 L20.4297976,75.7829422 L20.4297976,66.0829797 L10.8016867,66.0829797 L10.8016867,75.8547938 Z M12.3105697,61.7958358 C13.6997001,60.3348537 14.8732759,58.6343665 15.7354948,56.7662256 C16.7174663,58.6343665 18.0107946,60.3827548 19.4238756,61.7958358 L12.3105697,61.7958358 Z M15.1367316,54.0358657 C14.0829085,57.4368403 11.7597076,60.6941116 8.717991,62.7778073 C9.05329835,63.041263 9.62811094,63.5921251 9.86761619,63.9034819 C10.5861319,63.4005209 11.3046477,62.8017578 11.9273613,62.1790442 L11.9273613,63.2568178 L19.4238756,63.2568178 L19.4238756,61.7958358 C20.1184408,62.5143515 20.860907,63.1370651 21.5794228,63.6160756 C21.8668291,63.2089167 22.3697901,62.6101536 22.7529985,62.3227473 C20.310045,60.9096663 17.8191904,58.0116528 16.43006,55.1375899 C16.5019115,54.8980846 16.5977136,54.6585794 16.6695652,54.4190741 L15.1367316,54.0358657 Z M45.8892054,58.5864654 C45.0748876,57.4847413 43.3983508,55.784254 41.9852699,54.6106783 L40.7637931,55.4249962 C42.2008246,56.6704235 43.8294603,58.3948612 44.5958771,59.5205359 L45.8892054,58.5864654 Z M43.9013118,63.7118777 C43.0630435,65.3405134 41.9373688,66.873347 40.5961394,68.3103785 C40.16503,66.6338418 39.8297226,64.7177998 39.5662669,62.5622525 L46.511919,62.5622525 L46.511919,61.0533695 L39.3986132,61.0533695 C39.1830585,58.8978223 39.0872564,56.5985719 39.0872564,54.1556184 L37.4346702,54.1556184 C37.4586207,56.5267203 37.5783733,58.8738717 37.7699775,61.0533695 L32.1655547,61.0533695 L32.1655547,56.694374 C33.6504873,56.3590666 35.0156672,55.9758582 36.1652924,55.5926498 L35.0156672,54.275371 C32.7882684,55.1136394 28.8843328,55.9519077 25.5552099,56.4788193 C25.7468141,56.8620277 25.9863193,57.4128897 26.0581709,57.7960981 C27.5191529,57.5805434 29.0519865,57.3170876 30.5848201,57.0057308 L30.5848201,61.0533695 L25.3636057,61.0533695 L25.3636057,62.5622525 L30.5848201,62.5622525 L30.5848201,66.921248 C28.4771739,67.4002585 26.5132309,67.8074175 25.0522489,68.0708732 L25.5073088,69.6755584 C26.9682909,69.340251 28.7406297,68.9570427 30.5848201,68.5019827 L30.5848201,73.6513455 C30.5848201,74.0824549 30.4411169,74.2022076 30.0100075,74.2022076 C29.6028486,74.2261581 28.1897676,74.2501086 26.6329835,74.2022076 C26.8724888,74.6572675 27.1598951,75.3518328 27.2317466,75.8068927 C29.1956897,75.8308433 30.4411169,75.7589917 31.1835832,75.4955359 C31.8781484,75.2320801 32.1655547,74.7530696 32.1655547,73.6513455 L32.1655547,68.1187743 L36.6443028,67.0649512 L36.5245502,65.6279197 C35.0635682,65.9632271 33.6025862,66.2985344 32.1655547,66.6098912 L32.1655547,62.5622525 L37.9376312,62.5622525 C38.248988,65.2207608 38.704048,67.6158133 39.2788606,69.6276573 C37.5544228,71.2323425 35.5904798,72.5975224 33.5546852,73.6034445 C33.9378936,73.9387518 34.416904,74.4656633 34.6803598,74.8728223 C36.4766492,73.8908507 38.248988,72.6454235 39.8297226,71.256293 C40.9314468,74.1064055 42.4163793,75.8547938 44.3324213,75.8547938 C46.0568591,75.8547938 46.6556222,74.6812181 46.9430285,70.753332 C46.511919,70.5856783 45.9371064,70.2264205 45.6017991,69.9150636 C45.458096,73.0046813 45.1467391,74.2501086 44.4761244,74.2501086 C43.1827961,74.2501086 42.0331709,72.669374 41.123051,70.0108657 C42.7995877,68.286428 44.2366192,66.3464355 45.3143928,64.3106409 L43.9013118,63.7118777 Z M66.1992504,67.2565554 L53.4815217,67.2565554 L53.4815217,62.7538567 L66.1992504,62.7538567 L66.1992504,67.2565554 Z M67.8039355,61.2689242 L60.475075,61.2689242 L60.475075,58.0835044 L69.6002249,58.0835044 L69.6002249,56.5746214 L60.475075,56.5746214 L60.475075,53.9400636 L58.8943403,53.9400636 L58.8943403,61.2689242 L51.9726387,61.2689242 L51.9726387,68.7414879 L67.8039355,68.7414879 L67.8039355,61.2689242 Z M50.4637556,75.7829422 C51.7810345,74.5375149 53.0025112,72.5256708 53.8168291,70.6575299 L52.307946,70.2743215 C51.5415292,72.0466603 50.2961019,73.9866528 49.0267241,75.088377 L50.4637556,75.7829422 Z M56.14003,70.8730846 C56.4753373,72.4059182 56.6669415,74.3698612 56.6669415,75.543437 L58.2716267,75.3278822 C58.2716267,74.2022076 58.0081709,72.2622151 57.6728636,70.753332 L56.14003,70.8730846 Z M61.0977886,70.8970352 C61.8163043,72.3580172 62.5108696,74.3219602 62.7743253,75.4955359 L64.3071589,75.136278 C64.0437031,73.9387518 63.2772864,72.0227098 62.5348201,70.5617278 L61.0977886,70.8970352 Z M65.9597451,70.6814804 C67.1572714,72.1903635 68.4985007,74.2501086 69.0493628,75.5673875 L70.5582459,74.9446738 C69.9594828,73.627395 68.5703523,71.6395014 67.3488756,70.1545689 L65.9597451,70.6814804 Z M80.2103073,62.1311431 L80.2103073,65.0052061 L75.8273613,65.0052061 L75.8273613,62.1311431 L80.2103073,62.1311431 Z M75.8273613,69.5558058 L75.8273613,66.370386 L80.2103073,66.370386 L80.2103073,69.5558058 L75.8273613,69.5558058 Z M81.6952399,70.9688867 L81.6952399,60.7180621 L74.3663793,60.7180621 L74.3663793,72.6454235 L75.8273613,72.6454235 L75.8273613,70.9688867 L81.6952399,70.9688867 Z M85.5033733,68.83729 C85.6231259,67.9990217 85.671027,67.1607533 85.671027,66.370386 L85.671027,65.9392765 L91.6826087,65.9392765 L91.6826087,68.83729 L85.5033733,68.83729 Z M91.6826087,61.7958358 L91.6826087,64.5501461 L85.671027,64.5501461 L85.671027,61.7958358 L91.6826087,61.7958358 Z M93.2393928,60.3827548 L84.1381934,60.3827548 L84.1381934,66.3464355 C84.1381934,69.1486469 83.6591829,72.3580172 79.9947526,74.6093665 C80.3061094,74.8488717 80.8569715,75.4476349 81.0246252,75.8068927 C83.4675787,74.2980097 84.6651049,72.2861656 85.215967,70.2264205 L91.6826087,70.2264205 L91.6826087,73.7231971 C91.6826087,74.0824549 91.5628561,74.2022076 91.1796477,74.2022076 C90.8203898,74.2261581 89.5031109,74.2501086 88.09003,74.2022076 C88.3055847,74.6093665 88.5690405,75.2560307 88.6408921,75.6871401 C90.4850825,75.6871401 91.6586582,75.6871401 92.3532234,75.4236843 C93.0238381,75.1602286 93.2393928,74.6812181 93.2393928,73.7471476 L93.2393928,60.3827548 Z M88.7845952,56.0716603 L88.7845952,53.9640142 L87.2038606,53.9640142 L87.2038606,56.0716603 L80.33006,56.0716603 L80.33006,53.9640142 L78.7732759,53.9640142 L78.7732759,56.0716603 L73.4083583,56.0716603 L73.4083583,57.5086918 L78.7732759,57.5086918 L78.7732759,59.6642391 L80.33006,59.6642391 L80.33006,57.5086918 L87.2038606,57.5086918 L87.2038606,59.6642391 L88.7845952,59.6642391 L88.7845952,57.5086918 L94.2932159,57.5086918 L94.2932159,56.0716603 L88.7845952,56.0716603 Z"></path>
                </g>
            </g>
        </g>
    </g>
</svg>