<?xml version="1.0" encoding="utf-8"?>
<!-- Generator: Adobe Illustrator 18.0.0, SVG Export Plug-In . SVG Version: 6.00 Build 0)  -->
<!DOCTYPE svg PUBLIC "-//W3C//DTD SVG 1.1//EN" "http://www.w3.org/Graphics/SVG/1.1/DTD/svg11.dtd">
<svg version="1.1" id="图层_1" xmlns:sketch="http://www.bohemiancoding.com/sketch/ns"
	 xmlns="http://www.w3.org/2000/svg" xmlns:xlink="http://www.w3.org/1999/xlink" x="0px" y="0px" viewBox="322.4 0 2725.6 2383.9"
	 enable-background="new 322.4 0 2725.6 2383.9" xml:space="preserve">
<title>萌萌学车</title>
<desc>Created with Sketch.</desc>
<g>
	<path fill="#765039" d="M1764.7,264.9L1764.7,264.9c20.6,0,38.3-8.8,50-20.6c14.7-14.7,20.6-29.4,20.6-50
		c0-38.3-32.4-67.7-70.6-67.7c-38.3,0-70.6,29.4-70.6,67.7C1697,232.5,1726.4,264.9,1764.7,264.9z M1767.6,250.2L1767.6,250.2
		L1767.6,250.2L1767.6,250.2z"/>
	<path fill="#765039" d="M1567.5,126.6c-38.3,0-70.6,29.4-70.6,67.7s29.4,70.6,67.7,70.6l0,0c17.7,0,35.3-8.8,50-20.6
		c11.8-14.7,20.6-29.4,20.6-50C1635.2,156,1605.7,126.6,1567.5,126.6z M1567.5,250.2L1567.5,250.2L1567.5,250.2L1567.5,250.2z"/>
	<path fill="#765039" d="M2294.4,659.3c-35.3,5.9-67.7,14.7-100.1,32.4c-11.8-58.9-26.5-114.8-44.1-170.7c0,0,0-2.9,0-5.9
		c2.9-23.5,0-44.1-14.7-67.7c-11.8-20.6-29.4-38.3-55.9-53c-38.3-23.5-79.5-41.2-135.4-55.9c-17.7-5.9-38.3-8.8-58.9-14.7
		c47.1-44.1,67.7-100.1,55.9-161.9c-14.7-85.4-88.3-147.2-176.6-147.2c-35.3,0-70.6,11.8-100.1,29.4
		c-35.3-23.5-73.6-32.4-114.8-29.4c-73.6,5.9-135.4,58.9-156,126.6c-17.7,64.7,0,135.4,50,182.5c-2.9,0-2.9,0-5.9,0
		c-26.5,5.9-50,11.8-73.6,17.7c-41.2,11.8-91.2,29.4-135.4,64.7c-38.3,29.4-53,64.7-47.1,106c0,0,0,2.9-2.9,5.9l-11.8,44.1
		c-8.8,26.5-14.7,53-23.5,79.5c-2.9,14.7-5.9,29.4-8.8,41.2l0,0c-2.9,0-8.8-2.9-11.8-2.9c-20.6-5.9-41.2-14.7-61.8-20.6
		C1002.4,644.5,943.5,671,920,724c-26.5,58.9-11.8,126.6,38.3,161.9c11.8,5.9,20.6,11.8,32.4,17.7c2.9,0,2.9,2.9,5.9,2.9
		c0,2.9,0,5.9,0,8.8c-2.9,14.7-2.9,32.4-2.9,47.1c0,29.4,0,58.9,0,88.3c0,17.7,0,35.3,0,50c0,5.9,0,8.8-2.9,11.8
		c-14.7,35.3-17.7,76.5-8.8,123.6c8.8,44.1,38.3,67.7,64.7,85.4c32.4,20.6,70.6,38.3,123.6,50c8.8,2.9,11.8,5.9,14.7,11.8
		c35.3,61.8,88.3,97.1,156,103c2.9,0,5.9,0,8.8,0c58.9,0,103-38.3,132.4-64.7c2.9-2.9,5.9-2.9,8.8-2.9c20.6,0,41.2,2.9,58.9,2.9h2.9
		c97.1,0,194.2-2.9,294.3-2.9c2.9,0,5.9,0,8.8,5.9c41.2,41.2,82.4,64.7,126.6,64.7h5.9c70.6,0,126.6-35.3,164.8-103
		c2.9-8.8,8.8-11.8,14.7-11.8c50-11.8,91.2-29.4,123.6-50c47.1-29.4,70.6-70.6,67.7-123.6c0-14.7-2.9-26.5-5.9-41.2
		s-2.9-26.5-5.9-41.2c0-26.5,0-53,0-79.5c0-41.2,0-85.4-5.9-129.5c55.9-14.7,103-67.7,88.3-147.2
		C2418,691.6,2362.1,647.5,2294.4,659.3z M2303.3,841.7c-5.9,0-11.8,0-17.7,0h-58.9l26.5,38.3c14.7,23.5,23.5,44.1,23.5,67.7
		c0,29.4,0,55.9,0,85.4c0,26.5,0,50,0,76.5c0,5.9,2.9,14.7,5.9,17.7c0,2.9,0,2.9,2.9,5.9c0,2.9,2.9,5.9,2.9,8.8
		c2.9,2.9,2.9,8.8,2.9,11.8c0,20.6,2.9,44.1,0,64.7c0,11.8-8.8,23.5-26.5,38.3c-29.4,20.6-61.8,32.4-91.2,41.2
		c-73.6,23.5-153,32.4-220.7,41.2c-82.4,8.8-170.7,14.7-267.8,14.7h-14.7c-73.6,0-147.2-2.9-229.6-8.8
		c-91.2-5.9-167.8-17.7-238.4-35.3c-32.4-8.8-64.7-20.6-108.9-41.2c-26.5-11.8-41.2-26.5-44.1-47.1c-5.9-35.3-5.9-61.8,8.8-88.3
		c2.9-5.9,2.9-14.7,2.9-20.6v-32.4c0-29.4,0-58.9,0-88.3c-2.9-53,2.9-94.2,38.3-129.5l23.5-23.5h-35.3c-8.8,0-17.7,0-23.5,0
		c-5.9,0-14.7,0-20.6,0l0,0c-8.8,0-14.7,0-23.5,0c-26.5-2.9-44.1-23.5-47.1-53c-2.9-29.4,11.8-53,35.3-58.9c2.9,0,5.9-2.9,8.8-2.9
		c32.4,0,64.7,8.8,97.1,29.4c11.8,8.8,17.7,26.5,11.8,44.1c0,2.9,0,5.9-2.9,8.8l-8.8,29.4l32.4-8.8c8.8-2.9,14.7-2.9,20.6-5.9
		c8.8-2.9,14.7-14.7,14.7-23.5c5.9-85.4,23.5-176.6,61.8-273.7c2.9-5.9,2.9-11.8,0-20.6c-2.9-2.9-5.9-14.7,5.9-26.5
		c17.7-17.7,32.4-29.4,47.1-38.3c44.1-23.5,97.1-41.2,167.8-50c35.3-5.9,70.6-8.8,108.9-14.7c17.7-2.9,32.4-2.9,50-5.9l11.8-2.9
		v-85.4l-20.6,11.8c-38.3,20.6-73.6,20.6-108.9,0c-23.5-11.8-38.3-29.4-50-53c-20.6-44.1-5.9-100.1,35.3-129.5
		c23.5-17.7,53-26.5,82.4-23.5c29.4,2.9,53,17.7,73.6,41.2l8.8,11.8l11.8-8.8c58.9-50,111.8-55.9,158.9-20.6
		c41.2,32.4,55.9,88.3,32.4,135.4c-14.7,29.4-35.3,47.1-67.7,58.9c-29.4,8.8-58.9,5.9-91.2-11.8l-20.6-11.8v94.2l38.3,2.9
		c17.7,0,38.3,2.9,55.9,5.9c70.6,8.8,153,20.6,229.6,55.9c20.6,8.8,38.3,23.5,55.9,38.3c2.9,2.9,5.9,8.8,11.8,17.7l2.9,5.9v2.9
		c-8.8,17.7-2.9,32.4,0,41.2c0,2.9,2.9,2.9,2.9,5.9c29.4,88.3,47.1,164.8,53,235.5c0,14.7,2.9,47.1,44.1,50c0,0,2.9,0,5.9,2.9
		l23.5,5.9v-20.6c0-5.9,0-8.8,0-14.7c0-8.8,0-17.7,0-26.5c2.9-5.9,5.9-14.7,11.8-20.6c23.5-17.7,53-29.4,85.4-29.4h5.9
		c29.4,0,50,17.7,50,53c0,17.7-2.9,35.3-14.7,47.1C2338.6,835.9,2320.9,841.7,2303.3,841.7z"/>
	<path fill="#765039" d="M1252.6,968.3c-61.8,0-108.9,53-108.9,120.7s50,120.7,108.9,120.7s108.9-55.9,108.9-120.7
		S1314.4,968.3,1252.6,968.3z M1252.6,1150.8c-29.4,0-53-29.4-53-61.8c0-35.3,23.5-61.8,53-61.8c29.4,0,53,29.4,53,61.8
		C1305.5,1121.3,1282,1150.8,1252.6,1150.8z"/>
	<path fill="#765039" d="M2091.3,968.3c-61.8,0-108.9,53-108.9,120.7s50,120.7,108.9,120.7c58.9,0,108.9-55.9,108.9-120.7
		S2153.2,968.3,2091.3,968.3z M2091.3,1150.8c-29.4,0-53-29.4-53-61.8c0-35.3,23.5-61.8,53-61.8c29.4,0,53,29.4,53,61.8
		C2144.3,1121.3,2120.8,1150.8,2091.3,1150.8z"/>
	<path fill="#765039" d="M1847.1,1083.1c-97.1,94.2-253.1,94.2-350.2,0c-14.7-14.7-35.3-14.7-50,0s-14.7,35.3,0,50
		c61.8,61.8,144.2,91.2,223.7,91.2s161.9-29.4,223.7-91.2c14.7-14.7,14.7-35.3,0-50C1882.4,1068.4,1861.8,1068.4,1847.1,1083.1z"/>
	<path fill="#765039" d="M1585.1,709.3c0-61.8-53-114.8-114.8-114.8c-38.3,0-73.6,20.6-94.2,50c38.3,11.8,103,35.3,103,64.7
		c0,32.4-76.5,35.3-120.7,32.4c14.7,47.1,58.9,82.4,108.9,82.4C1535.1,821.1,1585.1,771.1,1585.1,709.3z"/>
	<path fill="#765039" d="M1870.6,594.5c-38.3,0-73.6,20.6-94.2,50c38.3,11.8,103,35.3,103,64.7c0,32.4-76.5,35.3-120.7,32.4
		c14.7,47.1,58.9,82.4,108.9,82.4c64.7,0,114.8-50,114.8-114.8S1932.4,594.5,1870.6,594.5z"/>
	<path fill="#765039" d="M1267.3,1933.6h-214.8v350.2h44.1v-47.1h173.6v-303.1H1267.3z M1223.1,2195.6h-129.5v-94.2h129.5V2195.6z
		 M1223.1,2060.2h-129.5v-85.4h129.5V2060.2z"/>
	<path fill="#765039" d="M560.9,1933.6H346.1v350.2h44.1v-47.1h173.6v-303.1H560.9z M519.7,2195.6H390.2v-94.2h129.5V2195.6z
		 M519.7,2060.2H390.2v-85.4h129.5V2060.2z"/>
	<path fill="#765039" d="M2056,2098.5c64.7-26.5,132.4-67.7,176.6-108.9l-32.4-23.5l-5.9,5.9h-350.2v41.2h297.3
		c-38.3,26.5-85.4,50-129.5,67.7v53h-282.5v44.1H2009v141.3c0,8.8-2.9,14.7-17.7,14.7s-61.8,0-114.8,0c5.9,14.7,17.7,32.4,20.6,47.1
		c64.7,0,103,0,129.5-8.8c23.5-5.9,32.4-20.6,32.4-50V2181h288.4v-44.1H2059v-38.3L2056,2098.5L2056,2098.5z"/>
	<path fill="#765039" d="M2794.8,2195.6v-111.8H2989v-44.1h-194.2v-108.9h-50v108.9h-185.4c32.4-47.1,61.8-100.1,91.2-156h385.6
		v-44.1h-364.9c14.7-29.4,26.5-58.9,41.2-91.2l-53-14.7c-11.8,35.3-26.5,70.6-41.2,106h-173.6v44.1h153c-23.5,50-47.1,91.2-58.9,106
		c-17.7,32.4-32.4,53-47.1,55.9c5.9,14.7,14.7,38.3,17.7,47.1c5.9-5.9,32.4-8.8,73.6-8.8h161.9v111.8h-312v47.1h312v135.4h50v-135.4
		H3048v-47.1h-253.2V2195.6z"/>
	<path fill="#765039" d="M1741.1,1989.6h44.1v-94.2h500.3v94.2h47.1v-135.4H2215c23.5-29.4,50-64.7,70.6-97.1l-47.1-17.7
		c-17.7,32.4-47.1,82.4-73.6,114.8h-117.7l35.3-14.7c-8.8-29.4-32.4-76.5-58.9-108.9l-41.2,14.7c23.5,32.4,47.1,79.5,55.9,108.9
		h-161.9l26.5-14.7c-11.8-26.5-41.2-67.7-67.7-97.1L1797,1760c23.5,29.4,50,64.7,61.8,94.2h-117.7L1741.1,1989.6L1741.1,1989.6z"/>
	<path fill="#765039" d="M1337.9,2098.5c0,82.4-14.7,176.6-120.7,244.3c8.8,5.9,26.5,23.5,29.4,35.3c70.6-44.1,106-103,123.6-164.8
		h191.3v103c0,11.8-2.9,14.7-14.7,14.7c-11.8,0-50,0-91.2,0c5.9,11.8,14.7,32.4,17.7,44.1c53,0,88.3,0,108.9-8.8s26.5-20.6,26.5-50
		v-391.4h-267.8v173.6H1337.9z M1385,1966h176.6v82.4H1385V1966z M1385,2101.4v-11.8h176.6v85.4h-182.5
		C1382.1,2148.5,1385,2124.9,1385,2101.4z"/>
	<polygon fill="#765039" points="769.9,1736.5 725.7,1736.5 725.7,1798.3 522.7,1798.3 522.7,1736.5 475.6,1736.5 475.6,1798.3 
		319.6,1798.3 319.6,1839.5 475.6,1839.5 475.6,1904.2 522.7,1904.2 522.7,1839.5 725.7,1839.5 725.7,1904.2 769.9,1904.2 
		769.9,1839.5 931.8,1839.5 931.8,1798.3 769.9,1798.3 	"/>
	<path fill="#765039" d="M634.5,2098.5c0,82.4-14.7,176.6-120.7,244.3c8.8,5.9,26.5,23.5,29.4,35.3c70.6-44.1,106-103,123.6-164.8
		h191.3v103c0,11.8-2.9,14.7-14.7,14.7s-50,0-91.2,0c5.9,11.8,14.7,32.4,17.7,44.1c53,0,88.3,0,108.9-8.8
		c20.6-8.8,26.5-20.6,26.5-50v-391.4H637.4v173.6H634.5z M678.6,1966h176.6v82.4H678.6V1966L678.6,1966z M678.6,2101.4v-11.8h176.6
		v85.4H672.8C678.6,2148.5,678.6,2124.9,678.6,2101.4z"/>
	<polygon fill="#765039" points="1476.2,1736.5 1429.1,1736.5 1429.1,1798.3 1226.1,1798.3 1226.1,1736.5 1181.9,1736.5 
		1181.9,1798.3 1023,1798.3 1023,1839.5 1181.9,1839.5 1181.9,1904.2 1226.1,1904.2 1226.1,1839.5 1429.1,1839.5 1429.1,1904.2 
		1476.2,1904.2 1476.2,1839.5 1638.1,1839.5 1638.1,1798.3 1476.2,1798.3 	"/>
</g>
</svg>
