<?xml version="1.0" encoding="UTF-8" standalone="no"?>
<svg width="70px" height="77px" viewBox="0 0 70 77" version="1.1" xmlns="http://www.w3.org/2000/svg" xmlns:xlink="http://www.w3.org/1999/xlink" xmlns:sketch="http://www.bohemiancoding.com/sketch/ns">
    <!-- Generator: Sketch 3.3.2 (12043) - http://www.bohemiancoding.com/sketch -->
    <title>排行榜</title>
    <desc>Created with Sketch.</desc>
    <defs></defs>
    <g id="Page-1" stroke="none" stroke-width="1" fill="none" fill-rule="evenodd" sketch:type="MSPage">
        <g id="点赞页面" sketch:type="MSArtboardGroup" transform="translate(-340.000000, -1240.000000)" fill="#765039">
            <g id="菜单栏-copy" sketch:type="MSLayerGroup" transform="translate(0.000000, 1224.000000)">
                <g id="排行榜" transform="translate(340.000000, 16.000000)" sketch:type="MSShapeGroup">
                    <g id="rating" transform="translate(10.975262, 0.000000)">
                        <g id="Group">
                            <path d="M45.5858321,45.9676284 L2.03942347,45.9676284 C1.23816955,45.9676284 0.587876516,45.3240816 0.587876516,44.53114 C0.587876516,43.7381985 1.23816955,43.0946517 2.03942347,43.0946517 L45.5858321,43.0946517 C46.387086,43.0946517 47.037379,43.7381985 47.037379,44.53114 C47.037379,45.3240816 46.387086,45.9676284 45.5858321,45.9676284 L45.5858321,45.9676284 Z" id="Shape"></path>
                            <path d="M14.6533665,35.2428061 C14.6533665,37.9922449 12.4005656,40.2216749 9.62230476,40.2216749 L5.89400641,40.2216749 C3.11574554,40.2216749 0.862944664,37.9922449 0.862944664,35.2428061 L0.862944664,20.780241 C0.863670438,18.0308023 3.11647131,15.8013723 5.89473218,15.8013723 L9.62303053,15.8013723 C12.4012914,15.8013723 14.6540923,18.0308023 14.6540923,20.780241 L14.6540923,35.2428061 L14.6533665,35.2428061 Z M11.7502726,20.780241 C11.7502726,19.6174037 10.797332,18.674349 9.62230476,18.674349 L5.89400641,18.674349 C4.71897915,18.674349 3.76603857,19.6174037 3.76603857,20.780241 L3.76603857,35.2435244 C3.76676435,36.4063617 4.71970492,37.3486981 5.89473218,37.3486981 L9.62303053,37.3486981 C10.7980578,37.3486981 11.7509984,36.4056435 11.7509984,35.2428061 L11.7509984,20.780241 L11.7502726,20.780241 Z" id="Shape"></path>
                            <path d="M31.3461565,35.2428061 C31.3461565,37.9922449 29.0933556,40.2216749 26.3150947,40.2216749 L22.5867964,40.2216749 C19.8085355,40.2216749 17.5557346,37.9922449 17.5557346,35.2428061 L17.5557346,12.8795549 C17.5557346,10.1301161 19.8085355,7.90068614 22.5867964,7.90068614 L26.3150947,7.90068614 C29.0933556,7.90068614 31.3461565,10.1301161 31.3461565,12.8795549 L31.3461565,35.2428061 L31.3461565,35.2428061 Z M28.4430626,12.8795549 C28.4430626,11.7167175 27.490122,10.7736629 26.3150947,10.7736629 L22.5867964,10.7736629 C21.4117691,10.7736629 20.4588285,11.7167175 20.4588285,12.8795549 L20.4588285,35.2435244 C20.4588285,36.4063617 21.4117691,37.3494163 22.5867964,37.3494163 L26.3150947,37.3494163 C27.490122,37.3494163 28.4430626,36.4063617 28.4430626,35.2435244 L28.4430626,12.8795549 L28.4430626,12.8795549 Z" id="Shape"></path>
                            <g transform="translate(33.385580, 0.000000)" id="Shape">
                                <g transform="translate(3.628867, 4.309465)">
                                    <path d="M1.45154695,6.46419775 C1.05019422,6.46419775 0.863670438,6.14314259 0.863670438,5.74595355 L0.863670438,1.40919511 C0.863670438,0 2.03289151,0 2.50827314,0 L4.2167439,0 C4.61737086,0 4.94251738,0.321055155 4.94251738,0.718244194 C4.94251738,1.11543323 4.61737086,1.43648839 4.2167439,1.43648839 L2.50827314,1.43648839 C2.26441325,1.43648839 2.12288742,1.4479803 2.04087502,1.46162694 L2.10837195,5.74595355 C2.10837195,6.14314259 1.85217391,6.46419775 1.45154695,6.46419775 L1.45154695,6.46419775 Z"></path>
                                    <path d="M1.31364999,8.02997009 C1.12422312,8.02997009 0.935522012,7.95096323 0.798350825,7.82167928 C0.666985825,7.68593112 0.587876516,7.49846939 0.587876516,7.3117259 C0.587876516,7.12498241 0.666985825,6.93823892 0.798350825,6.80177252 C1.07414475,6.52883973 1.56041298,6.53602217 1.82894916,6.80177252 C1.95958839,6.93823892 2.03942347,7.11779996 2.03942347,7.3117259 C2.03942347,7.49846939 1.95958839,7.68593112 1.82894916,7.82167928 C1.69032643,7.95024499 1.50162532,8.02997009 1.31364999,8.02997009 L1.31364999,8.02997009 Z"></path>
                                </g>
                                <path d="M13.927593,35.2428061 C13.927593,37.9922449 11.6747921,40.2216749 8.89653128,40.2216749 L5.16823293,40.2216749 C2.38997206,40.2216749 0.137171187,37.9922449 0.137171187,35.2428061 L0.137171187,4.97886875 C0.137896961,2.22942998 2.39069783,0 5.1689587,0 L8.89725705,0 C11.6755179,0 13.9283188,2.22942998 13.9283188,4.97886875 L13.9283188,35.2428061 L13.927593,35.2428061 Z M11.0244991,4.97886875 C11.0244991,3.8160314 10.0722843,2.87297678 8.89725705,2.87297678 L5.1689587,2.87297678 C3.99393144,2.87297678 3.04099087,3.8160314 3.04099087,4.97886875 L3.04099087,35.2435244 C3.04099087,36.4063617 3.99393144,37.3494163 5.1689587,37.3494163 L8.89725705,37.3494163 C10.0722843,37.3494163 11.0252249,36.4063617 11.0252249,35.2435244 L11.0252249,4.97886875 L11.0244991,4.97886875 Z"></path>
                            </g>
                        </g>
                    </g>
                    <path d="M7.76589205,65.5015413 C6.87972264,65.7649971 5.94565217,66.0284529 5.05948276,66.2919086 L5.05948276,61.3101995 L7.69404048,61.3101995 L7.69404048,59.825267 L5.05948276,59.825267 L5.05948276,54.9633104 L3.52664918,54.9633104 L3.52664918,59.825267 L0.437031484,59.825267 L0.437031484,61.3101995 L3.52664918,61.3101995 L3.52664918,66.7230181 C2.25727136,67.1062265 1.05974513,67.3936328 0.125674663,67.633138 L0.484932534,69.2138727 C1.39505247,68.9264664 2.44887556,68.6151095 3.52664918,68.3037527 L3.52664918,74.7224933 C3.52664918,75.0338502 3.40689655,75.1296523 3.09553973,75.1296523 C2.85603448,75.1296523 1.92196402,75.1296523 0.916041979,75.1057017 C1.10764618,75.5368112 1.3232009,76.1595248 1.419003,76.5666837 C2.85603448,76.5666837 3.7422039,76.5427332 4.29306597,76.2792775 C4.81997751,76.0397722 5.05948276,75.6086628 5.05948276,74.6985428 L5.05948276,67.8247422 C6.01750375,67.5373359 6.97552474,67.2259791 7.95749625,66.9385728 L7.76589205,65.5015413 Z M12.3164918,59.1067512 L8.65206147,59.1067512 L8.65206147,60.5437827 L12.3164918,60.5437827 L12.3164918,64.0166088 L8.72391304,64.0166088 L8.72391304,65.4296897 L12.3164918,65.4296897 L12.3164918,68.9264664 L8.17305097,68.9264664 L8.17305097,70.3874484 L12.3164918,70.3874484 L12.3164918,76.7582879 L13.8493253,76.7582879 L13.8493253,55.1070136 L12.3164918,55.1070136 L12.3164918,59.1067512 Z M21.8967016,69.0222685 L17.6574588,69.0222685 L17.6574588,65.4296897 L21.4416417,65.4296897 L21.4416417,64.0166088 L17.6574588,64.0166088 L17.6574588,60.5437827 L21.6571964,60.5437827 L21.6571964,59.1067512 L17.6574588,59.1067512 L17.6574588,55.0830631 L16.1246252,55.0830631 L16.1246252,76.7822385 L17.6574588,76.7822385 L17.6574588,70.4832505 L21.8967016,70.4832505 L21.8967016,69.0222685 Z M45.0329085,56.4242924 L33.2971514,56.4242924 L33.2971514,57.9331755 L45.0329085,57.9331755 L45.0329085,56.4242924 Z M29.4171664,54.9393599 C28.1956897,56.6877482 25.8724888,58.867246 23.8606447,60.1845248 C24.148051,60.4958817 24.6270615,61.0946448 24.8426162,61.4060016 C26.9742129,59.9210691 29.3932159,57.6218187 30.9260495,55.538123 L29.4171664,54.9393599 Z M30.3751874,60.0408217 C28.6986507,62.795132 26.0401424,65.5973434 23.5253373,67.3696823 C23.8606447,67.6810391 24.4594078,68.3277032 24.698913,68.6630106 C25.656934,67.8965938 26.6628561,66.9864739 27.6208771,65.9805518 L27.6208771,76.85409 L29.2016117,76.85409 L29.2016117,64.2321635 C30.1835832,63.0585878 31.1176537,61.8131605 31.8840705,60.5916837 L30.3751874,60.0408217 Z M45.7035232,62.9867362 L32.2672789,62.9867362 L32.2672789,64.5195698 L40.4344078,64.5195698 L40.4344078,74.6506418 C40.4344078,75.0578007 40.2907046,75.1775533 39.8356447,75.2015038 C39.3805847,75.2254544 37.7758996,75.2254544 36.0275112,75.1775533 C36.2670165,75.5847122 36.5304723,76.2074259 36.6023238,76.6145848 C38.8776237,76.6145848 40.1949025,76.6145848 41.0092204,76.3990301 C41.7756372,76.1355743 42.039093,75.6805143 42.039093,74.6745923 L42.039093,64.5195698 L45.7035232,64.5195698 L45.7035232,62.9867362 Z M69.0313343,57.2146598 L63.6664168,57.2146598 C63.4987631,56.496144 63.2353073,55.538123 62.947901,54.8196073 L61.5108696,55.0112115 C61.7503748,55.6818262 61.941979,56.5200945 62.0856822,57.2146598 L56.0501499,57.2146598 L56.0501499,58.5558891 L69.0313343,58.5558891 L69.0313343,57.2146598 Z M55.2118816,66.4356118 C54.8526237,65.7410466 53.1521364,62.6753794 52.6731259,61.9329131 L52.6731259,61.0706942 L55.2358321,61.0706942 L55.2358321,59.5618112 L52.6731259,59.5618112 L52.6731259,54.9393599 L51.2839955,54.9393599 L51.2839955,59.5618112 L48.1464768,59.5618112 L48.1464768,61.0706942 L51.0444903,61.0706942 C50.4217766,64.3758667 49.0565967,68.2798022 47.6674663,70.2916463 C47.9548726,70.6748547 48.338081,71.3694199 48.4817841,71.8244799 C49.5356072,70.1718936 50.5654798,67.4654843 51.2839955,64.711174 L51.2839955,76.7343374 L52.6731259,76.7343374 L52.6731259,64.0645098 C53.2958396,65.2859866 53.9904048,66.8188202 54.2778111,67.585237 L55.2118816,66.4356118 Z M61.3911169,63.9447572 C61.6785232,64.6872235 61.941979,65.6212939 62.0856822,66.3398097 L56.0741004,66.3398097 L56.0741004,67.7049896 L59.7145802,67.7049896 C59.4271739,71.5370736 58.564955,74.1955818 54.9963268,75.6326133 C55.3076837,75.9200196 55.7627436,76.4469311 55.9303973,76.7822385 C58.6128561,75.6326133 59.978036,73.8363239 60.6486507,71.4173209 L66.2051724,71.4173209 C65.9656672,73.8602745 65.7022114,74.890147 65.3908546,75.2254544 C65.1992504,75.4170586 64.9836957,75.4170586 64.6004873,75.4170586 C64.2412294,75.4170586 63.1634558,75.4170586 62.0856822,75.2973059 C62.3012369,75.7044649 62.4688906,76.2553269 62.4928411,76.6624858 C63.5945652,76.7343374 64.6723388,76.7582879 65.2232009,76.7103869 C65.8459145,76.6864364 66.2530735,76.5427332 66.6362819,76.1595248 C67.1871439,75.6086628 67.4985007,74.1955818 67.8098576,70.7227557 C67.8338081,70.507201 67.8577586,70.052141 67.8577586,70.052141 L60.9600075,70.052141 C61.0797601,69.3336253 61.1755622,68.5193074 61.2474138,67.7049896 L69.0552849,67.7049896 L69.0552849,66.3398097 L63.6903673,66.3398097 C63.5466642,65.6452445 63.2113568,64.5674709 62.8760495,63.705252 L61.3911169,63.9447572 Z M65.774063,61.7652595 C66.1812219,60.9269911 66.6123313,59.873168 67.0434408,58.915147 L65.4627061,58.5798397 C65.1992504,59.4899596 64.6962894,60.8072385 64.2412294,61.7652595 L60.0498876,61.7652595 L60.8402549,61.5736553 C60.6965517,60.8551395 60.3133433,59.6576133 59.8822339,58.7474933 L58.4931034,59.0109491 C58.8523613,59.873168 59.2116192,60.9988427 59.3313718,61.7652595 L55.7627436,61.7652595 L55.7627436,65.5015413 L57.2237256,65.5015413 L57.2237256,63.0825383 L67.9535607,63.0825383 L67.9535607,65.5015413 L69.4624438,65.5015413 L69.4624438,61.7652595 L65.774063,61.7652595 Z"></path>
                </g>
            </g>
        </g>
    </g>
</svg>